<?xml version="1.0" encoding="UTF-8" standalone="no"?>
<svg
   xmlns:dc="http://purl.org/dc/elements/1.1/"
   xmlns:cc="http://creativecommons.org/ns#"
   xmlns:rdf="http://www.w3.org/1999/02/22-rdf-syntax-ns#"
   xmlns:svg="http://www.w3.org/2000/svg"
   xmlns="http://www.w3.org/2000/svg"
   viewBox="0 0 700.01331 319.62668"
   height="319.62668"
   width="700.01331"
   xml:space="preserve"
   id="svg2"
   version="1.1"><metadata
     id="metadata8"><rdf:RDF><cc:Work
         rdf:about=""><dc:format>image/svg+xml</dc:format><dc:type
           rdf:resource="http://purl.org/dc/dcmitype/StillImage" /></cc:Work></rdf:RDF></metadata><defs
     id="defs6" /><g
     transform="matrix(1.3333333,0,0,-1.3333333,0,319.62667)"
     id="g10"><g
       transform="scale(0.1)"
       id="g12"><path
         id="path14"
         style="fill:#f04624;fill-opacity:1;fill-rule:nonzero;stroke:none"
         d="M 2682.34,1597.24 H 1727.5 v 547.1 h 954.84 v -547.1" /><path
         id="path16"
         style="fill:#505256;fill-opacity:1;fill-rule:nonzero;stroke:none"
         d="M 1737.83,995.449 115.012,1002.8 v 740.97 l 1622.818,-7.34 V 995.449" /><path
         id="path18"
         style="fill:#ffffff;fill-opacity:1;fill-rule:nonzero;stroke:none"
         d="M 1609.77,1127.74 H 81.8711 v 634.17 H 1609.77 v -634.17" /><path
         id="path20"
         style="fill:#100f0d;fill-opacity:1;fill-rule:nonzero;stroke:none"
         d="M 110.328,1156.19 H 1581.3 v 577.26 H 110.328 Z M 1638.22,1099.27 H 53.4023 v 691.11 H 1638.22 v -691.11" /><path
         id="path22"
         style="fill:#100f0d;fill-opacity:1;fill-rule:nonzero;stroke:none"
         d="m 300.875,1442.43 v -150.15 h -75.078 v 303.78 h 62.062 l 81.149,-149.72 81.16,149.72 h 62.055 v -303.78 h -75.078 v 150.15 l -42.532,-78.11 h -51.207 l -42.531,78.11" /><path
         id="path24"
         style="fill:#100f0d;fill-opacity:1;fill-rule:nonzero;stroke:none"
         d="m 564.73,1596.06 h 203.536 v -67.7 H 641.977 v -46.43 H 750.48 v -67.7 H 641.977 v -54.25 h 126.289 v -67.7 H 564.73 v 303.78" /><path
         id="path26"
         style="fill:#100f0d;fill-opacity:1;fill-rule:nonzero;stroke:none"
         d="m 960.977,1472.82 c 0,40.79 -12.582,55.54 -39.489,55.54 h -28.211 v -168.38 h 28.211 c 26.907,0 39.489,14.75 39.489,55.55 z m -39.489,123.24 c 71.61,0 116.742,-44.69 116.742,-118.04 v -67.7 c 0,-73.34 -45.132,-118.04 -116.742,-118.04 H 816.031 v 303.78 h 105.457" /><path
         id="path28"
         style="fill:#100f0d;fill-opacity:1;fill-rule:nonzero;stroke:none"
         d="m 1161.77,1292.28 h -77.25 v 303.78 h 77.25 v -303.78" /><path
         id="path30"
         style="fill:#100f0d;fill-opacity:1;fill-rule:nonzero;stroke:none"
         d="m 1307.13,1404.25 h 52.08 l -26.04,94.61 z m -14.32,191.81 h 80.72 l 96.34,-303.78 h -79.85 l -13.89,50.78 h -85.93 l -13.88,-50.78 h -79.86 l 96.35,303.78" /><path
         id="path32"
         style="fill:#505256;fill-opacity:1;fill-rule:nonzero;stroke:none"
         d="M 5196.65,829.148 H 1919.83 V 1419.17 H 5196.65 V 829.148" /><path
         id="path34"
         style="fill:#ffffff;fill-opacity:1;fill-rule:nonzero;stroke:none"
         d="M 5068.86,949.859 H 1766.38 V 1593.06 H 5068.86 V 949.859" /><path
         id="path36"
         style="fill:#100f0d;fill-opacity:1;fill-rule:nonzero;stroke:none"
         d="M 1794.83,978.309 H 5040.39 V 1564.6 H 1794.83 Z m 3302.48,-56.911 h -3359.4 v 700.122 h 3359.4 V 921.398" /><path
         id="path38"
         style="fill:#100f0d;fill-opacity:1;fill-rule:nonzero;stroke:none"
         d="m 2031.65,1285.41 v -144.4 h -72.2 v 292.14 h 59.69 l 78.03,-143.98 78.05,143.98 h 59.68 v -292.14 h -72.2 v 144.4 l -40.9,-75.12 h -49.25 l -40.9,75.12" /><path
         id="path40"
         style="fill:#100f0d;fill-opacity:1;fill-rule:nonzero;stroke:none"
         d="m 2378.35,1248.69 h 50.09 l -25.04,90.98 z m -13.77,184.46 h 77.63 l 92.65,-292.14 h -76.79 l -13.35,48.83 h -82.64 l -13.35,-48.83 h -76.8 l 92.65,292.14" /><path
         id="path42"
         style="fill:#100f0d;fill-opacity:1;fill-rule:nonzero;stroke:none"
         d="m 2641.1,1297.51 v -156.5 h -73.03 v 292.14 h 63.01 l 93.08,-156.51 v 156.51 h 73.03 v -292.14 h -63.02 l -93.07,156.5" /><path
         id="path44"
         style="fill:#100f0d;fill-opacity:1;fill-rule:nonzero;stroke:none"
         d="m 2927.84,1141.01 h -74.29 v 292.14 h 74.29 v -292.14" /><path
         id="path46"
         style="fill:#100f0d;fill-opacity:1;fill-rule:nonzero;stroke:none"
         d="m 3094.38,1300.43 c 19.19,0 33.39,10.02 33.39,33.81 0,23.79 -14.2,33.81 -33.39,33.81 h -32.13 v -67.62 z m -32.13,-65.1 v -94.32 h -74.29 v 292.14 h 113.52 c 50.49,0 100.58,-30.47 100.58,-98.91 0,-68.45 -50.09,-98.91 -100.58,-98.91 h -39.23" /><path
         id="path48"
         style="fill:#100f0d;fill-opacity:1;fill-rule:nonzero;stroke:none"
         d="m 3459.8,1433.15 v -182.8 c 0,-69.69 -42.56,-114.35 -111.01,-114.35 -68.44,0 -111.02,44.66 -111.02,114.35 v 182.8 h 74.29 v -178.63 c 0,-36.72 12.11,-53.42 36.73,-53.42 24.62,0 36.73,16.7 36.73,53.42 v 178.63 h 74.28" /><path
         id="path50"
         style="fill:#100f0d;fill-opacity:1;fill-rule:nonzero;stroke:none"
         d="m 3520.38,1433.15 h 74.29 v -227.03 h 121.44 v -65.11 h -195.73 v 292.14" /><path
         id="path52"
         style="fill:#100f0d;fill-opacity:1;fill-rule:nonzero;stroke:none"
         d="m 3850.17,1248.69 h 50.07 l -25.03,90.98 z m -13.78,184.46 h 77.63 l 92.65,-292.14 h -76.79 l -13.36,48.83 h -82.63 l -13.36,-48.83 h -76.79 l 92.65,292.14" /><path
         id="path54"
         style="fill:#100f0d;fill-opacity:1;fill-rule:nonzero;stroke:none"
         d="m 3991.47,1433.15 h 219.54 v -65.1 h -72.62 v -227.04 h -74.29 v 227.04 h -72.63 v 65.1" /><path
         id="path56"
         style="fill:#100f0d;fill-opacity:1;fill-rule:nonzero;stroke:none"
         d="m 4326.18,1141.01 h -74.29 v 292.14 h 74.29 v -292.14" /><path
         id="path58"
         style="fill:#100f0d;fill-opacity:1;fill-rule:nonzero;stroke:none"
         d="m 4523.36,1259.53 v 55.09 c 0,40.07 -14.18,58.43 -39.23,58.43 -25.03,0 -39.23,-18.36 -39.23,-58.43 v -55.09 c 0,-40.06 14.2,-58.43 39.23,-58.43 25.05,0 39.23,18.37 39.23,58.43 z m 74.29,60.1 v -65.11 c 0,-69.27 -44.24,-118.52 -113.52,-118.52 -69.27,0 -113.51,49.25 -113.51,118.52 v 65.11 c 0,69.28 44.24,118.53 113.51,118.53 69.28,0 113.52,-49.25 113.52,-118.53" /><path
         id="path60"
         style="fill:#100f0d;fill-opacity:1;fill-rule:nonzero;stroke:none"
         d="m 4716.8,1297.51 v -156.5 h -73.03 v 292.14 h 63.01 l 93.06,-156.51 v 156.51 h 73.04 v -292.14 h -63.01 l -93.07,156.5" /><path
         id="path62"
         style="fill:#68cccb;fill-opacity:1;fill-rule:nonzero;stroke:none"
         d="M 4117.14,73.8008 H 974.082 V 828.691 H 4117.14 V 73.8008" /><path
         id="path64"
         style="fill:#ffffff;fill-opacity:1;fill-rule:nonzero;stroke:none"
         d="M 3963.11,206.609 H 820.621 v 776.43 H 3963.11 v -776.43" /><path
         id="path66"
         style="fill:#100f0d;fill-opacity:1;fill-rule:nonzero;stroke:none"
         d="M 849.086,235.082 H 3964.65 V 954.57 H 849.086 Z M 4021.57,178.16 H 792.164 v 833.33 H 4021.57 V 178.16" /><path
         id="path68"
         style="fill:#100f0d;fill-opacity:1;fill-rule:nonzero;stroke:none"
         d="m 1121.27,554.66 c 0,-54.351 19.25,-79.269 53.22,-79.269 28.87,0 48.12,20.949 53.78,61.148 l 99.65,-10.758 C 1316.6,438.59 1259.99,387.07 1174.49,387.07 c -93.98,0 -153.99,66.809 -153.99,160.789 v 88.332 c 0,93.969 60.01,160.778 153.99,160.778 85.5,0 142.11,-51.52 153.43,-138.707 L 1228.27,647.5 c -5.66,40.199 -24.91,61.148 -53.78,61.148 -33.97,0 -53.22,-24.91 -53.22,-79.257 V 554.66" /><path
         id="path70"
         style="fill:#100f0d;fill-opacity:1;fill-rule:nonzero;stroke:none"
         d="m 1494.83,539.941 h 67.95 l -33.97,123.418 z m -18.68,250.239 h 105.31 l 125.69,-396.309 h -104.18 l -18.12,66.231 h -112.09 l -18.12,-66.231 h -104.17 l 125.68,396.309" /><path
         id="path72"
         style="fill:#100f0d;fill-opacity:1;fill-rule:nonzero;stroke:none"
         d="m 1875.42,387.07 c -74.17,0 -138.71,39.641 -158.53,127.379 l 95.69,10.192 c 9.62,-34.52 32.83,-51.512 61.71,-51.512 27.17,0 45.29,13.582 45.29,36.23 0,20.95 -13.02,31.7 -43.02,38.5 l -31.15,6.801 c -76.43,16.418 -117.75,54.352 -117.75,120.59 0,65.102 48.12,121.719 137.57,121.719 75.3,0 131.35,-43.59 144.94,-119.457 l -93.99,-10.192 c -6.79,28.871 -23.77,43.602 -48.69,43.602 -25.47,0 -39.06,-14.731 -39.06,-33.981 0,-19.25 17.55,-32.261 48.69,-39.062 l 31.71,-6.801 c 72.46,-15.289 111.53,-52.09 111.53,-119.457 0,-75.851 -57.18,-124.551 -144.94,-124.551" /><path
         id="path74"
         style="fill:#100f0d;fill-opacity:1;fill-rule:nonzero;stroke:none"
         d="m 2076.98,790.18 h 265.53 V 701.859 H 2177.75 V 641.27 h 141.55 v -88.309 h -141.55 v -70.77 h 164.76 v -88.32 H 2076.98 V 790.18" /><path
         id="path76"
         style="fill:#100f0d;fill-opacity:1;fill-rule:nonzero;stroke:none"
         d="m 2515.39,472.57 h 43.03 c 26.6,0 45.85,15.282 45.85,44.16 0,28.872 -19.25,44.149 -45.85,44.149 h -43.03 z m 0,160.211 h 35.66 c 24.91,0 42.47,12.457 42.47,39.071 0,26.617 -17.56,39.07 -42.47,39.07 h -35.66 z M 2414.61,393.871 V 790.18 h 144.94 c 83.79,0 134.74,-38.5 134.74,-109.27 0,-39.64 -20.38,-67.379 -49.82,-80.39 37.93,-14.161 60.58,-43.598 60.58,-88.899 0,-84.91 -62.84,-117.75 -142.67,-117.75 h -147.77" /><path
         id="path78"
         style="fill:#100f0d;fill-opacity:1;fill-rule:nonzero;stroke:none"
         d="m 2955.96,554.66 v 74.731 c 0,54.347 -19.25,79.257 -53.22,79.257 -33.98,0 -53.22,-24.91 -53.22,-79.257 V 554.66 c 0,-54.351 19.24,-79.269 53.22,-79.269 33.97,0 53.22,24.918 53.22,79.269 z m 100.77,81.531 v -88.332 c 0,-93.98 -60.02,-160.789 -153.99,-160.789 -93.99,0 -154,66.809 -154,160.789 v 88.332 c 0,93.969 60.01,160.778 154,160.778 93.97,0 153.99,-66.809 153.99,-160.778" /><path
         id="path80"
         style="fill:#100f0d;fill-opacity:1;fill-rule:nonzero;stroke:none"
         d="m 3308.39,554.66 v 74.731 c 0,54.347 -19.25,79.257 -53.22,79.257 -33.97,0 -53.22,-24.91 -53.22,-79.257 V 554.66 c 0,-54.351 19.25,-79.269 53.22,-79.269 33.97,0 53.22,24.918 53.22,79.269 z m 100.78,81.531 v -88.332 c 0,-93.98 -60.02,-160.789 -154,-160.789 -93.99,0 -154,66.809 -154,160.789 v 88.332 c 0,93.969 60.01,160.778 154,160.778 93.98,0 154,-66.809 154,-160.778" /><path
         id="path82"
         style="fill:#100f0d;fill-opacity:1;fill-rule:nonzero;stroke:none"
         d="m 3752.89,774.32 c 0,-76.422 -20.38,-127.941 -71.34,-172.109 l 108.14,-208.34 h -110.96 l -77.01,152.859 -36.23,-23.781 V 393.871 H 3464.71 V 790.18 h 100.78 V 635.051 l 18.12,11.89 c 47.55,31.129 68.5,63.411 68.5,127.379 v 15.86 h 100.78 v -15.86" /><path
         id="path84"
         style="fill:#ffffff;fill-opacity:1;fill-rule:nonzero;stroke:none"
         d="m 2560.83,1747.88 h -941.38 v 547.1 h 941.38 v -547.1" /><path
         id="path86"
         style="fill:#100f0d;fill-opacity:1;fill-rule:nonzero;stroke:none"
         d="m 1647.91,1776.34 h 884.46 v 490.17 h -884.46 z m 941.38,-56.92 h -998.3 v 604.01 h 998.3 v -604.01" /><path
         id="path88"
         style="fill:#100f0d;fill-opacity:1;fill-rule:nonzero;stroke:none"
         d="m 1751.47,2146.7 h 189.64 v -56.25 h -62.73 v -196.12 h -64.17 v 196.12 h -62.74 v 56.25" /><path
         id="path90"
         style="fill:#100f0d;fill-opacity:1;fill-rule:nonzero;stroke:none"
         d="m 2109.56,1995.64 h -59.13 v -101.31 h -64.18 v 252.37 h 64.18 v -94.82 h 59.13 v 94.82 h 64.17 v -252.37 h -64.17 v 101.31" /><path
         id="path92"
         style="fill:#100f0d;fill-opacity:1;fill-rule:nonzero;stroke:none"
         d="m 2220.49,2146.7 h 169.09 v -56.25 h -104.92 v -38.57 h 90.13 v -56.24 h -90.13 v -45.07 h 104.92 v -56.24 h -169.09 v 252.37" /></g></g></svg>